<?xml version="1.0" encoding="UTF-8"?>
<svg id="Ebene_1" data-name="Ebene 1" xmlns="http://www.w3.org/2000/svg" viewBox="0 0 600 600">
  <defs>
    <style>
      .cls-1 {
        fill: #323e48;
      }
    </style>
  </defs>
  <path class="cls-1" d="M114.05,248.75l-12.22-3.03c-11.82-2.93-23.82,4.3-26.76,16.12-2.93,11.82,4.3,23.82,16.12,26.76l12.22,3.03c26.1,6.48,52.74,8.6,79.39,6.37-4.12-13.55-6.71-27.59-8.32-41.36-20.37-.35-40.63-2.98-60.42-7.89Z"/>
  <path class="cls-1" d="M496.82,245.72l-12.22,3.03c-19.79,4.91-40.06,7.55-60.43,7.9-1.61,13.77-4.2,27.8-8.32,41.35,26.65,2.23,53.29.1,79.38-6.37l12.22-3.03c11.82-2.93,19.05-14.94,16.11-26.76-2.94-11.82-14.96-19.05-26.76-16.12Z"/>
  <path class="cls-1" d="M475.79,415.13l-10.83-6.41c-31.1-18.4-61.63-46.29-83.75-76.54-2.88-3.94-3.14-9.21-.65-13.41,21.94-37.1,21.92-90.19,21.91-125.33v-2.28c0-56.34-45.84-102.18-102.18-102.18-.32,0-.64-.01-.95-.04-.31.02-.63.04-.95.04-56.34,0-102.18,45.84-102.18,102.18v2.28c0,35.14-.02,88.23,21.91,125.33,2.48,4.2,2.23,9.48-.65,13.41-22.13,30.25-52.65,58.15-83.75,76.54l-10.84,6.41c-10.48,6.2-13.97,19.77-7.77,30.26,6.2,10.48,19.77,13.97,30.26,7.77l10.84-6.41c28.78-17.02,53.38-39.34,73.12-66.32l25.49-34.85c2.34-3.2,6.03-5,9.85-5,1.26,0,2.54.2,3.79.6,5.02,1.64,8.41,6.32,8.41,11.6v147.01c0,10.71,8.96,19.42,19.98,19.42h4.99c11.02,0,19.98-8.71,19.98-19.42v-147.01c0-5.28,3.4-9.96,8.41-11.6,5.01-1.63,10.52.13,13.64,4.39l25.49,34.85c19.74,26.99,44.34,49.3,73.12,66.32l10.83,6.41c10.48,6.21,24.06,2.72,30.26-7.77,6.2-10.48,2.72-24.06-7.77-30.26ZM281.28,263.34c0,8.16-6.61,14.77-14.77,14.77s-14.77-6.61-14.77-14.77v-50.65c0-8.16,6.61-14.77,14.77-14.77s14.77,6.61,14.77,14.77v50.65ZM346.92,263.34c0,8.16-6.61,14.77-14.77,14.77s-14.77-6.61-14.77-14.77v-50.65c0-8.16,6.61-14.77,14.77-14.77s14.77,6.61,14.77,14.77v50.65Z"/>
  <path class="cls-1" d="M190.98,124.37l-1.26-1.61c-7.51-9.59-21.42-11.28-31.01-3.76-9.59,7.51-11.28,21.42-3.77,31.01l7.76,9.91c3.37,4.3,6.89,8.5,10.56,12.58,2.59-17.45,8.76-33.74,17.72-48.12Z"/>
  <path class="cls-1" d="M436.13,159.91l7.76-9.91c7.51-9.59,5.82-23.5-3.76-31.01-4.64-3.64-10.43-5.25-16.29-4.54-5.86.71-11.09,3.66-14.73,8.31l-1.26,1.61c8.97,14.38,15.13,30.67,17.72,48.12,3.66-4.08,7.19-8.28,10.56-12.58Z"/>
</svg>